<svg width="32" height="32" viewBox="0 0 32 32" fill="none" xmlns="http://www.w3.org/2000/svg">
<g clip-path="url(#clip0_11750_27923)">
<path d="M30.4446 16.0001C30.4446 23.9775 23.9775 30.4445 16.0001 30.4445C8.02357 30.4445 1.55566 23.9775 1.55566 16.0001C1.55566 8.02356 8.02357 1.55566 16.0001 1.55566C23.9775 1.55566 30.4446 8.02356 30.4446 16.0001Z" fill="#FFCC4D"/>
<path d="M14.9279 10.0166C14.7618 9.94437 14.566 9.99252 14.4529 10.1354C14.4456 10.145 13.6672 11.0999 11.7766 11.6151C11.1547 11.7852 10.548 11.8711 9.97507 11.8711C9.17902 11.8711 8.72402 11.701 8.72162 11.7002C8.5531 11.632 8.3581 11.6889 8.25057 11.8358C8.14223 11.9834 8.14785 12.1849 8.26341 12.3269C8.32038 12.3967 9.6918 14.0498 11.5736 14.0498C11.8553 14.0498 12.1369 14.0121 12.4106 13.9375C14.7008 13.3131 15.147 10.5607 15.1646 10.4435C15.1919 10.2646 15.0948 10.0896 14.9279 10.0166ZM23.735 11.7459C23.6243 11.6007 23.4301 11.5493 23.2616 11.6183C23.2567 11.6207 22.7536 11.8238 21.8677 11.8238C21.3372 11.8238 20.7779 11.7523 20.2041 11.6111C18.3031 11.1433 17.5006 10.2076 17.4942 10.2004C17.377 10.0591 17.1829 10.0134 17.0159 10.0904C16.8498 10.1667 16.7567 10.3456 16.7888 10.5254C16.8097 10.6417 17.3249 13.3821 19.6288 13.9495C19.8783 14.0113 20.1335 14.0426 20.3879 14.0426C22.3106 14.0426 23.6772 12.3092 23.7342 12.2354C23.8449 12.0902 23.8441 11.8904 23.735 11.7459ZM9.57865 9.58085C9.21915 9.58085 8.89254 9.3377 8.80106 8.97338C8.69433 8.54406 8.95433 8.10912 9.38205 8.00079C9.41094 7.99357 12.2653 7.22962 13.6769 4.40733C13.8751 4.01091 14.3558 3.84962 14.7538 4.04863C15.1502 4.24684 15.3107 4.72912 15.1125 5.12554C13.3623 8.62511 9.9197 9.52067 9.77446 9.55758C9.70946 9.57363 9.64365 9.58085 9.57865 9.58085ZM22.4198 9.58085C22.3556 9.58085 22.2906 9.57283 22.2256 9.55678C22.0795 9.52067 18.6369 8.62431 16.8875 5.12474C16.6893 4.72832 16.8498 4.24604 17.2462 4.04783C17.6419 3.84962 18.1241 4.01011 18.3232 4.40653C19.7339 7.22881 22.5883 7.99276 22.618 7.99999C23.0457 8.10993 23.3057 8.54647 23.1974 8.97499C23.1043 9.33851 22.7785 9.58085 22.4198 9.58085ZM16 24.7997C13.0927 24.7997 11.1635 25.1383 8.77779 25.6021C8.23291 25.7073 7.17285 25.6021 7.17285 23.9972C7.17285 20.7873 10.8602 16.775 16 16.775C21.139 16.775 24.8272 20.7873 24.8272 23.9972C24.8272 25.6021 23.7671 25.7081 23.2222 25.6021C20.8365 25.1383 18.9074 24.7997 16 24.7997Z" fill="#664500"/>
<path d="M9.58057 21.6176C9.58057 21.6176 11.988 20.8151 16.0003 20.8151C20.0127 20.8151 22.4201 21.6176 22.4201 21.6176C22.4201 21.6176 20.8151 18.4077 16.0003 18.4077C11.1855 18.4077 9.58057 21.6176 9.58057 21.6176Z" fill="white"/>
</g>
<defs>
<clipPath id="clip0_11750_27923">
<rect width="28.8889" height="28.8889" fill="white" transform="translate(1.55566 1.55566)"/>
</clipPath>
</defs>
</svg>
