<svg width="24" height="24" viewBox="0 0 24 24" fill="none" xmlns="http://www.w3.org/2000/svg">
<path d="M21 10.713V18.989C21 20.1 20.129 21 19.054 21H4.946C3.871 21 3 20.1 3 18.99V7.01C3 5.9 3.871 5 4.946 5H10.297" stroke="#0D0D0D" stroke-width="1.4835" stroke-linecap="round" stroke-linejoin="round"/>
<path fill-rule="evenodd" clip-rule="evenodd" d="M18.062 3.50486C18.734 2.83286 19.824 2.83186 20.496 3.50486V3.50486C21.168 4.17686 21.168 5.26686 20.495 5.93886L14.721 11.7079C14.534 11.8949 14.28 11.9999 14.015 11.9999H12V9.98486C12 9.71986 12.105 9.46586 12.293 9.27786L18.062 3.50486V3.50486Z" stroke="#0D0D0D" stroke-width="1.5" stroke-linecap="round" stroke-linejoin="round"/>
<path d="M8 12H6" stroke="#0D0D0D" stroke-width="1.5" stroke-linecap="round" stroke-linejoin="round"/>
<path d="M6 16H18" stroke="#0D0D0D" stroke-width="1.5" stroke-linecap="round" stroke-linejoin="round"/>
<path d="M19.43 6.99982L17 4.56982" stroke="#0D0D0D" stroke-width="1.5" stroke-linecap="round" stroke-linejoin="round"/>
</svg>
