<svg width="24" height="24" viewBox="0 0 24 24" fill="none" xmlns="http://www.w3.org/2000/svg">
<path d="M13.5271 11.125V9.777C13.5271 8.934 12.8431 8.25 12.0001 8.25V8.25C11.1571 8.25 10.4731 8.934 10.4731 9.777V11.125" stroke="#0D0D0D" stroke-width="1.5" stroke-linecap="round" stroke-linejoin="round"/>
<path fill-rule="evenodd" clip-rule="evenodd" d="M13.75 11.126H10.25C9.698 11.126 9.25 11.574 9.25 12.126V14.25C9.25 14.802 9.698 15.25 10.25 15.25H13.75C14.302 15.25 14.75 14.802 14.75 14.25V12.126C14.75 11.574 14.302 11.126 13.75 11.126Z" stroke="#0D0D0D" stroke-width="1.5" stroke-linecap="round" stroke-linejoin="round"/>
<path fill-rule="evenodd" clip-rule="evenodd" d="M20 11.2422C20 15.6102 16.843 19.7042 12.52 20.9282C12.182 21.0242 11.818 21.0242 11.48 20.9282C7.157 19.7052 4 15.6102 4 11.2422V7.21424C4 6.40224 4.491 5.67024 5.243 5.36324L10.107 3.37324C11.321 2.87624 12.681 2.87624 13.894 3.37324L18.758 5.36324C19.509 5.67024 20 6.40224 20 7.21424V11.2422Z" stroke="#0D0D0D" stroke-width="1.5" stroke-linecap="round" stroke-linejoin="round"/>
</svg>
