<svg width="32" height="32" viewBox="0 0 32 32" fill="none" xmlns="http://www.w3.org/2000/svg">
<g clip-path="url(#clip0_11750_27914)">
<path d="M16.0001 30.4445C23.9776 30.4445 30.4446 23.9776 30.4446 16.0001C30.4446 8.02266 23.9776 1.55566 16.0001 1.55566C8.02266 1.55566 1.55566 8.02266 1.55566 16.0001C1.55566 23.9776 8.02266 30.4445 16.0001 30.4445Z" fill="#FFCC4D"/>
<path d="M16 18.4065C13.0927 18.4065 11.1635 18.0679 8.77779 17.6041C8.23291 17.4989 7.17285 17.6041 7.17285 19.209C7.17285 22.4189 10.8602 26.4312 16 26.4312C21.139 26.4312 24.8272 22.4189 24.8272 19.209C24.8272 17.6041 23.7671 17.4981 23.2222 17.6041C20.8365 18.0679 18.9074 18.4065 16 18.4065Z" fill="#664500"/>
<path d="M8.77783 19.2104C8.77783 19.2104 11.1852 20.0129 16.0001 20.0129C20.8149 20.0129 23.2223 19.2104 23.2223 19.2104C23.2223 19.2104 21.6173 22.4203 16.0001 22.4203C10.3828 22.4203 8.77783 19.2104 8.77783 19.2104Z" fill="white"/>
<path d="M11.1854 15.1974C12.2934 15.1974 13.1915 13.9399 13.1915 12.3887C13.1915 10.8375 12.2934 9.58008 11.1854 9.58008C10.0774 9.58008 9.1792 10.8375 9.1792 12.3887C9.1792 13.9399 10.0774 15.1974 11.1854 15.1974Z" fill="#664500"/>
<path d="M20.8148 15.1974C21.9227 15.1974 22.8209 13.9399 22.8209 12.3887C22.8209 10.8375 21.9227 9.58008 20.8148 9.58008C19.7068 9.58008 18.8086 10.8375 18.8086 12.3887C18.8086 13.9399 19.7068 15.1974 20.8148 15.1974Z" fill="#664500"/>
</g>
<defs>
<clipPath id="clip0_11750_27914">
<rect width="28.8889" height="28.8889" fill="white" transform="translate(1.55566 1.55566)"/>
</clipPath>
</defs>
</svg>
