<svg width="32" height="32" viewBox="0 0 32 32" fill="none" xmlns="http://www.w3.org/2000/svg">
<g clip-path="url(#clip0_11750_27932)">
<path d="M30.4446 16.0001C30.4446 23.9775 23.9775 30.4445 16.0001 30.4445C8.02357 30.4445 1.55566 23.9775 1.55566 16.0001C1.55566 8.02356 8.02357 1.55566 16.0001 1.55566C23.9775 1.55566 30.4446 8.02356 30.4446 16.0001Z" fill="#FFCC4D"/>
<path d="M21.6173 22.4197H10.3827C9.93977 22.4197 9.58026 22.061 9.58026 21.6172C9.58026 21.1735 9.93977 20.8148 10.3827 20.8148H21.6173C22.0611 20.8148 22.4198 21.1735 22.4198 21.6172C22.4198 22.061 22.0611 22.4197 21.6173 22.4197ZM13.5926 16H7.97532C7.53236 16 7.17285 15.6405 7.17285 15.1975C7.17285 14.7545 7.53236 14.395 7.97532 14.395H13.5926C14.0356 14.395 14.3951 14.7545 14.3951 15.1975C14.3951 15.6405 14.0356 16 13.5926 16ZM24.0247 16H18.4074C17.9637 16 17.605 15.6405 17.605 15.1975C17.605 14.7545 17.9637 14.395 18.4074 14.395H24.0247C24.4685 14.395 24.8272 14.7545 24.8272 15.1975C24.8272 15.6405 24.4685 16 24.0247 16Z" fill="#664500"/>
</g>
<defs>
<clipPath id="clip0_11750_27932">
<rect width="28.8889" height="28.8889" fill="white" transform="translate(1.55566 1.55566)"/>
</clipPath>
</defs>
</svg>
