<svg width="24" height="24" viewBox="0 0 24 24" fill="none" xmlns="http://www.w3.org/2000/svg">
<path d="M7.17523 7.82119C7.24681 7.89277 7.26823 8.00042 7.22949 8.09395C7.19075 8.18747 7.09949 8.24845 6.99826 8.24845C6.89702 8.24845 6.80576 8.18747 6.76702 8.09395C6.72828 8.00042 6.7497 7.89277 6.82128 7.82119C6.91912 7.72368 7.07739 7.72368 7.17523 7.82119" stroke="#1F1633" stroke-width="1.5" stroke-linecap="round" stroke-linejoin="round"/>
<path d="M12.1767 7.82119C12.2483 7.89277 12.2697 8.00042 12.231 8.09395C12.1922 8.18747 12.101 8.24845 11.9997 8.24845C11.8985 8.24845 11.8072 8.18747 11.7685 8.09395C11.7297 8.00042 11.7512 7.89277 11.8227 7.82119C11.9206 7.72368 12.0789 7.72368 12.1767 7.82119" stroke="#1F1633" stroke-width="1.5" stroke-linecap="round" stroke-linejoin="round"/>
<path d="M17.1791 7.82119C17.2507 7.89277 17.2721 8.00042 17.2334 8.09395C17.1947 8.18747 17.1034 8.24845 17.0022 8.24845C16.9009 8.24845 16.8097 8.18747 16.7709 8.09395C16.7322 8.00042 16.7536 7.89277 16.8252 7.82119C16.923 7.72368 17.0813 7.72368 17.1791 7.82119" stroke="#1F1633" stroke-width="1.5" stroke-linecap="round" stroke-linejoin="round"/>
<path d="M9.9995 13.0007H4.99742C4.46672 13.0009 3.95771 12.7901 3.58245 12.4149C3.20719 12.0396 2.99658 11.5306 2.99658 10.9999V4.99742C2.99658 4.46672 3.20719 3.95771 3.58245 3.58245C3.95771 3.20719 4.46672 2.99644 4.99742 2.99658H19.0032C19.5339 2.99644 20.043 3.20719 20.4182 3.58245C20.7935 3.95771 21.0041 4.46672 21.0041 4.99742V7.99867" stroke="#1F1633" stroke-width="1.5" stroke-linecap="round" stroke-linejoin="round"/>
<path fill-rule="evenodd" clip-rule="evenodd" d="M13.644 16.685L11.3145 19.0193C11.1133 19.2222 11.0001 19.4963 10.9995 19.7821V20.9251C10.9995 21.521 11.4826 22.0041 12.0785 22.0041H13.2263C13.5128 22.0045 13.7875 21.8902 13.9891 21.6867L16.3137 19.3572C16.7395 19.5063 17.1867 19.585 17.6378 19.5902C19.5111 19.621 21.1883 18.4342 21.7824 16.6573C22.3766 14.8805 21.7505 12.9235 20.2354 11.8214C18.7203 10.7192 16.6657 10.7262 15.1581 11.8386C13.6505 12.951 13.0378 14.9122 13.644 16.685V16.685Z" stroke="#1F1633" stroke-width="1.5" stroke-linecap="round" stroke-linejoin="round"/>
<path d="M17.6379 15.2409C17.5688 15.2409 17.5129 15.2969 17.5129 15.3659C17.5129 15.435 17.5688 15.491 17.6379 15.491C17.707 15.491 17.763 15.435 17.763 15.3659C17.763 15.2969 17.707 15.2409 17.6379 15.2409V15.2409" stroke="#1F1633" stroke-width="1.5" stroke-linecap="round" stroke-linejoin="round"/>
</svg>
