<svg width="24" height="24" viewBox="0 0 24 24" fill="none" xmlns="http://www.w3.org/2000/svg">
<path d="M14.0001 8.97411C15.0165 9.99052 15.3206 11.5191 14.7705 12.8471C14.2204 14.1751 12.9246 15.041 11.4871 15.041C10.0497 15.041 8.75381 14.1751 8.20374 12.8471C7.65366 11.5191 7.95771 9.99052 8.97413 8.97411C9.64059 8.30757 10.5446 7.93311 11.4871 7.93311C12.4297 7.93311 13.3337 8.30757 14.0001 8.97411" stroke="#0D0D0D" stroke-width="1.5" stroke-linecap="round" stroke-linejoin="round"/>
<path fill-rule="evenodd" clip-rule="evenodd" d="M16 16L14 14L16 16Z" stroke="#0D0D0D" stroke-width="1.5" stroke-linecap="round" stroke-linejoin="round"/>
<path d="M3.00023 12C3.00104 12.637 3.06931 13.2721 3.20388 13.8947" stroke="#0D0D0D" stroke-width="1.5" stroke-linecap="round" stroke-linejoin="round"/>
<path d="M12 3C7.02944 3 3 7.02944 3 12" stroke="#0D0D0D" stroke-width="1.5" stroke-linecap="round" stroke-linejoin="round"/>
<path d="M21 12C21 7.02944 16.9706 3 12 3" stroke="#0D0D0D" stroke-width="1.5" stroke-linecap="round" stroke-linejoin="round"/>
<path d="M10.1055 20.7964C12.7641 21.372 15.5405 20.7132 17.657 19.0043C19.7735 17.2954 21.0027 14.7203 21.0002 12" stroke="#0D0D0D" stroke-width="1.5" stroke-linecap="round" stroke-linejoin="round"/>
<path fill-rule="evenodd" clip-rule="evenodd" d="M8 17.9181V17.2109C8 16.9376 7.82235 16.6959 7.56142 16.6144L5.68642 16.0284C5.56503 15.9905 5.43497 15.9905 5.31358 16.0284L3.43858 16.6144C3.17765 16.6959 3 16.9376 3 17.2109V17.9181C3.00001 19.2208 3.80805 20.3867 5.02774 20.8441L5.39028 20.9801C5.46102 21.0067 5.53898 21.0067 5.60972 20.9801L5.97226 20.8441C7.19197 20.3867 8.00001 19.2207 8 17.9181Z" stroke="#0D0D0D" stroke-width="1.5" stroke-linecap="round" stroke-linejoin="round"/>
</svg>
