<svg width="20" height="20" viewBox="0 0 20 20" fill="none" xmlns="http://www.w3.org/2000/svg">
<path d="M8.67647 3.77441H3.5C2.94772 3.77441 2.5 4.22213 2.5 4.77441V16.4999C2.5 17.0522 2.94772 17.4999 3.5 17.4999H15.2255C15.7778 17.4999 16.2255 17.0522 16.2255 16.4999V11.0783" stroke="#4D4D4D" stroke-width="1.5" stroke-linecap="round"/>
<path d="M12.8149 2.10276C12.976 1.66745 13.5934 1.66746 13.7545 2.10276C14.4635 4.0188 15.9815 5.53685 17.8975 6.24584C18.3328 6.40692 18.3328 7.02429 17.8975 7.18537C15.9815 7.89436 14.4635 9.41241 13.7545 11.3284C13.5934 11.7638 12.976 11.7638 12.8149 11.3284C12.1059 9.41241 10.5879 7.89436 8.67186 7.18537C8.23655 7.02429 8.23655 6.40692 8.67186 6.24584C10.5879 5.53685 12.1059 4.0188 12.8149 2.10276Z" fill="#4D4D4D"/>
<path d="M7.70478 10.1639C7.76921 9.98976 8.01549 9.98976 8.07992 10.1639L8.20801 10.51C8.51187 11.3312 9.1593 11.9786 9.98046 12.2825L10.3266 12.4106C10.5007 12.475 10.5007 12.7213 10.3266 12.7857L9.98046 12.9138C9.1593 13.2177 8.51187 13.8651 8.20801 14.6863L8.07992 15.0324C8.01549 15.2066 7.76921 15.2066 7.70478 15.0324L7.57669 14.6863C7.27283 13.8651 6.6254 13.2177 5.80424 12.9138L5.45807 12.7857C5.28395 12.7213 5.28395 12.475 5.45807 12.4106L5.80424 12.2825C6.6254 11.9786 7.27283 11.3312 7.57669 10.51L7.70478 10.1639Z" fill="#4D4D4D"/>
<path d="M17.0184 2.32062C17.0828 2.1465 17.3291 2.1465 17.3935 2.32062L17.4436 2.45588C17.5448 2.72959 17.7607 2.94541 18.0344 3.04669L18.1696 3.09674C18.3438 3.16117 18.3438 3.40745 18.1696 3.47188L18.0344 3.52193C17.7607 3.62321 17.5448 3.83902 17.4436 4.11274L17.3935 4.248C17.3291 4.42212 17.0828 4.42212 17.0184 4.248L16.9683 4.11274C16.867 3.83902 16.6512 3.62321 16.3775 3.52193L16.2423 3.47188C16.0681 3.40745 16.0681 3.16117 16.2423 3.09674L16.3775 3.04669C16.6512 2.94541 16.867 2.72959 16.9683 2.45588L17.0184 2.32062Z" fill="#4D4D4D"/>
</svg>
