<svg width="24" height="24" viewBox="0 0 24 24" fill="none" xmlns="http://www.w3.org/2000/svg">
<path d="M14.8575 17.1414V16.0014H13.7175V17.1414H8.0025V16.0014H6.8625V12.5739H8.0025V11.4264H13.7175V12.5739H14.8575V11.4264H22.86V12.5739H24V10.2864H19.4325V9.1502H18.2925V10.2902H11.43V9.1502H10.29V8.0027H11.43V6.85895H18.2925V7.99895H19.4325V4.5752H18.2925V5.7152H11.43V4.5752H10.29V5.7152H1.1475V6.8627H0V10.2902H1.1475V11.4302H2.2875V12.5777H3.435V11.4302H5.715V12.5777H4.575V16.0052H5.715V17.1452H3.435V16.0052H2.2875V17.1452H1.1475V18.2927H0V21.7202H1.1475V22.8602H24V20.5727H22.86V21.7202H13.7175V20.5727H12.5775V19.4327H13.7175V18.2927H22.86V19.4327H24V16.0052H22.86V17.1452L14.8575 17.1414ZM4.575 9.1502H2.2875V8.0027H4.575V9.1502ZM10.29 19.4327H9.15V20.5727H10.29V21.7202H9.15V20.5727H8.0025V19.4327H9.15V18.2927H10.29V19.4327Z" fill="#1F1633"/>
<path d="M22.8607 12.5732H21.7207V16.0007H22.8607V12.5732Z" fill="#1F1633"/>
<path d="M22.8599 19.4287H14.8574V20.5687H22.8599V19.4287Z" fill="#1F1633"/>
<path d="M20.5734 14.8535H16.0059V16.001H20.5734V14.8535Z" fill="#1F1633"/>
<path d="M20.5734 12.5732H16.0059V13.7132H20.5734V12.5732Z" fill="#1F1633"/>
<path d="M18.2931 7.99902H12.5781V9.14652H18.2931V7.99902Z" fill="#1F1633"/>
<path d="M18.2931 3.43066H12.5781V4.57066H18.2931V3.43066Z" fill="#1F1633"/>
<path d="M13.7181 12.5732H12.5781V16.0007H13.7181V12.5732Z" fill="#1F1633"/>
<path d="M10.2904 3.43066H9.15039V4.57066H10.2904V3.43066Z" fill="#1F1633"/>
<path d="M4.57461 3.43066H2.28711V4.57066H4.57461V3.43066Z" fill="#1F1633"/>
<path d="M10.2909 2.28355V3.43105H11.4309V2.28355H18.2934V3.43105H19.4334V1.14355H1.14844V2.28355H10.2909Z" fill="#1F1633"/>
<path d="M2.28844 12.5732H1.14844V16.0007H2.28844V12.5732Z" fill="#1F1633"/>
<path d="M1.1475 2.2832H0V5.7107H1.1475V2.2832Z" fill="#1F1633"/>
</svg>
