<svg width="32" height="32" viewBox="0 0 32 32" fill="none" xmlns="http://www.w3.org/2000/svg">
<rect x="0.5" y="0.5" width="31" height="31" rx="15.5" fill="#F4F1ED"/>
<rect x="0.5" y="0.5" width="31" height="31" rx="15.5" stroke="#C6C1BB"/>
<path d="M11.3335 11.3333H13.3335C14.4381 11.3333 15.3335 12.2287 15.3335 13.3333C15.3335 14.4378 14.4381 15.3333 13.3335 15.3333C12.2289 15.3333 11.3335 14.4378 11.3335 13.3333V11.3333Z" fill="#4D4D4D"/>
<path d="M11.3335 18.6667C11.3335 17.5622 12.2289 16.6667 13.3335 16.6667C14.4381 16.6667 15.3335 17.5622 15.3335 18.6667C15.3335 19.7713 14.4381 20.6667 13.3335 20.6667H11.3335V18.6667Z" fill="#4D4D4D"/>
<path d="M16.6665 13.3333C16.6665 12.2287 17.5619 11.3333 18.6665 11.3333H20.6665V13.3333C20.6665 14.4378 19.7711 15.3333 18.6665 15.3333C17.5619 15.3333 16.6665 14.4378 16.6665 13.3333Z" fill="#4D4D4D"/>
<path d="M16.6665 18.6667C16.6665 17.5622 17.5619 16.6667 18.6665 16.6667C19.7711 16.6667 20.6665 17.5622 20.6665 18.6667V20.6667H18.6665C17.5619 20.6667 16.6665 19.7713 16.6665 18.6667Z" fill="#4D4D4D"/>
</svg>
