<svg width="10" height="10" viewBox="0 0 10 10" fill="none" xmlns="http://www.w3.org/2000/svg">
<path d="M1.33398 9.33398H0V8H1.33398V9.33398ZM9.33398 9.33398H8V8H9.33398V9.33398ZM2.66699 6.66699V8H1.33398V6.66699H2.66699ZM8 8H6.66699V6.66699H8V8ZM4 6.66699H2.66699V5.33398H4V6.66699ZM6.66699 6.66699H5.33398V5.33398H6.66699V6.66699ZM5.33398 5.33398H4V4H5.33398V5.33398ZM4 4H2.66699V2.66699H4V4ZM6.66699 4H5.33398V2.66699H6.66699V4ZM2.66699 2.66699H1.33398V1.33398H2.66699V2.66699ZM8 2.66699H6.66699V1.33398H8V2.66699ZM1.33398 1.33398H0V0H1.33398V1.33398ZM9.33398 1.33398H8V0H9.33398V1.33398Z" fill="#1F1633"/>
</svg>
