<svg width="24" height="24" viewBox="0 0 24 24" fill="none" xmlns="http://www.w3.org/2000/svg">
<path fill-rule="evenodd" clip-rule="evenodd" d="M20.4943 11.8958L12.9945 20.329C12.615 20.7558 12.0711 21 11.5 21C10.9289 21 10.385 20.7558 10.0055 20.329L2.50566 11.8957C1.93741 11.2567 1.83811 10.3272 2.25855 9.58255L5.40124 4.01677C5.75593 3.38855 6.42145 3.00002 7.14288 3H15.8571C16.5786 3.00002 17.2441 3.38855 17.5988 4.01677L20.7414 9.58258C21.1619 10.3272 21.0626 11.2567 20.4943 11.8958Z" stroke="#0D0D0D" stroke-width="1.5" stroke-linecap="round" stroke-linejoin="round"/>
<path d="M12.4255 19.2376C12.0866 20.066 10.9134 20.066 10.5745 19.2376L7 10.5L9.5 3L13.657 3L16 10.5L12.4255 19.2376Z" stroke="#0D0D0D" stroke-width="1.5"/>
<path d="M2 10.5H21.5" stroke="#0D0D0D" stroke-width="1.5"/>
</svg>
