<svg width="20.5" height="19.5" viewBox="0 0 20 19.35" fill="none" xmlns="http://www.w3.org/2000/svg">
    <path fill-rule="evenodd" clip-rule="evenodd" d="M19.2443 9.64575L11.7445 18.079C11.365 18.5058 10.8211 18.75 10.25 18.75C9.67887 18.75 9.13499 18.5058 8.75546 18.079L1.25566 9.64572C0.687407 9.00671 0.588108 8.07718 1.00855 7.33255L4.15124 1.76677C4.50593 1.13855 5.17145 0.750018 5.89288 0.75H14.6071C15.3286 0.750018 15.9941 1.13855 16.3488 1.76677L19.4914 7.33258C19.9119 8.07721 19.8126 9.00674 19.2443 9.64575Z" stroke="#6F3FF5" stroke-width="1.5" stroke-linecap="round" stroke-linejoin="round"/>
    <path d="M11.1755 16.9876C10.8366 17.816 9.66338 17.816 9.32445 16.9876L5.75 8.25L8.25 0.749999L12.407 0.75L14.75 8.25L11.1755 16.9876Z" stroke="#6F3FF5" stroke-width="1.5"/>
    <path d="M0.75 8.25H20.25" stroke="#6F3FF5" stroke-width="1.5"/>
</svg>
