<svg width="20" height="20" viewBox="0 0 20 20" fill="none" xmlns="http://www.w3.org/2000/svg">
<path d="M16.6668 8.33333V4.16667C16.6668 3.24619 15.9206 2.5 15.0002 2.5H5.00016C4.07969 2.5 3.3335 3.24619 3.3335 4.16667V15.8333C3.3335 16.7538 4.07969 17.5 5.00016 17.5H9.16683" stroke="#0D0D0D" stroke-width="1.5" stroke-linecap="round" stroke-linejoin="round"/>
<path d="M18.3331 17.5001L16.9673 16.1343" stroke="#0D0D0D" stroke-width="1.5" stroke-linecap="round" stroke-linejoin="round"/>
<path d="M14.7698 10.8333C16.4838 10.8333 17.8732 12.2227 17.8732 13.9366C17.8732 15.6505 16.4838 17.0399 14.7698 17.0399C13.0559 17.0399 11.6665 15.6505 11.6665 13.9366C11.6666 12.2227 13.056 10.8334 14.7698 10.8333" stroke="#0D0D0D" stroke-width="1.5" stroke-linecap="round" stroke-linejoin="round"/>
<path d="M9.99984 11.6667H8.33317C7.4127 11.6667 6.6665 12.4129 6.6665 13.3334" stroke="#0D0D0D" stroke-width="1.5" stroke-linecap="round" stroke-linejoin="round"/>
<ellipse cx="10" cy="7.70825" rx="1.875" ry="1.875" stroke="#0D0D0D" stroke-width="1.5" stroke-linecap="round" stroke-linejoin="round"/>
<path d="M10 5.83325C11.0355 5.83325 11.875 6.67272 11.875 7.70825C11.875 8.74379 11.0355 9.58325 10 9.58325" stroke="#0D0D0D" stroke-width="1.5" stroke-linecap="round" stroke-linejoin="round"/>
</svg>
