<svg width="16" height="16" viewBox="0 0 16 16" fill="none" xmlns="http://www.w3.org/2000/svg">
<g clip-path="url(#clip0_11689_6761)">
<path d="M8 16C12.4183 16 16 12.4183 16 8C16 3.58172 12.4183 0 8 0C3.58172 0 0 3.58172 0 8C0 12.4183 3.58172 16 8 16Z" fill="#E5E5E5"/>
<path d="M15.9996 8.00045C15.9996 4.56073 13.8286 1.62839 10.7822 0.498047V15.5029C13.8286 14.3725 15.9996 11.4402 15.9996 8.00045Z" fill="#D80027"/>
<path d="M0 8.00045C0 11.4402 2.17103 14.3725 5.21741 15.5029V0.498047C2.17103 1.62839 0 4.56073 0 8.00045Z" fill="#0052B4"/>
</g>
<defs>
<clipPath id="clip0_11689_6761">
<rect width="16" height="16" fill="white"/>
</clipPath>
</defs>
</svg>
