<svg width="40" height="40" viewBox="0 0 40 40" fill="none" xmlns="http://www.w3.org/2000/svg">
<circle cx="20" cy="20" r="20" fill="#E5E1DC"/>
<path d="M26.6668 18.3333V14.1667C26.6668 13.2462 25.9206 12.5 25.0002 12.5H15.0002C14.0797 12.5 13.3335 13.2462 13.3335 14.1667V25.8333C13.3335 26.7538 14.0797 27.5 15.0002 27.5H19.1668" stroke="#0D0D0D" stroke-width="1.5" stroke-linecap="round" stroke-linejoin="round"/>
<path d="M28.3331 27.5001L26.9673 26.1343" stroke="#0D0D0D" stroke-width="1.5" stroke-linecap="round" stroke-linejoin="round"/>
<path d="M24.7698 20.8333C26.4838 20.8333 27.8732 22.2227 27.8732 23.9366C27.8732 25.6505 26.4838 27.0399 24.7698 27.0399C23.0559 27.0399 21.6665 25.6505 21.6665 23.9366C21.6666 22.2227 23.056 20.8334 24.7698 20.8333" stroke="#0D0D0D" stroke-width="1.5" stroke-linecap="round" stroke-linejoin="round"/>
<path d="M19.9998 21.6667H18.3332C17.4127 21.6667 16.6665 22.4129 16.6665 23.3334" stroke="#0D0D0D" stroke-width="1.5" stroke-linecap="round" stroke-linejoin="round"/>
<ellipse cx="20" cy="17.7083" rx="1.875" ry="1.875" stroke="#0D0D0D" stroke-width="1.5" stroke-linecap="round" stroke-linejoin="round"/>
<path d="M20 15.8333C21.0355 15.8333 21.875 16.6727 21.875 17.7083C21.875 18.7438 21.0355 19.5833 20 19.5833" stroke="#0D0D0D" stroke-width="1.5" stroke-linecap="round" stroke-linejoin="round"/>
</svg>
