<svg width="107" height="27" viewBox="0 0 107 27" fill="none" xmlns="http://www.w3.org/2000/svg">
<g clip-path="url(#clip0_9472_3610)">
<path d="M6.07021 0.0786133L3.03376 10.6568H0L6.07021 0.0786133Z" fill="url(#paint0_linear_9472_3610)"/>
<path d="M12.1405 10.6568H10.5926L6.07031 0.0786133L12.1405 10.6568Z" fill="url(#paint1_linear_9472_3610)"/>
<path d="M6.07021 21.235L0 10.6567H3.03376L6.07021 21.235Z" fill="url(#paint2_linear_9472_3610)"/>
<path d="M12.1405 10.6567L6.07031 21.235L10.5926 10.6567H12.1405Z" fill="url(#paint3_linear_9472_3610)"/>
<path d="M10.5924 10.6567L6.07015 21.235L3.03369 10.6567H10.5924Z" fill="url(#paint4_linear_9472_3610)"/>
<path d="M10.5924 10.6568H3.03369L6.07015 0.0786133L10.5924 10.6568Z" fill="url(#paint5_linear_9472_3610)"/>
<path d="M25.3372 3.52245C25.3075 3.81599 25.3075 4.10952 25.3075 4.37316V14.9405C25.3075 17.5524 26.4151 20.284 26.6204 20.9879V21.1347H22.7681V20.9879C22.9734 20.284 24.081 17.5524 24.081 14.9405V4.37316C24.081 2.55214 23.2651 0.644151 23.0895 0.116871V0H27.6983L34.2034 16.6148L40.4789 0H44.7689V0.086974C44.6527 0.644151 44.0989 2.52225 44.0989 4.37316V16.7615C44.0989 18.5825 44.6527 20.4905 44.7689 21.0178V21.1347H39.809V21.0178C39.9251 20.4905 40.4789 18.5825 40.4789 16.7615V3.46537L33.8279 21.1374H32.1935L25.3372 3.52245Z" fill="#242424"/>
<path d="M46.6924 16.3812V10.8339C46.6924 8.98569 46.1386 7.10488 46.0225 6.5477V6.46073H50.1071V15.9409C50.1071 18.2022 51.4497 19.11 52.9382 19.11C54.0188 19.11 55.0967 18.6398 56.1179 17.7891C56.0882 17.4657 56.0882 17.1721 56.0882 16.8786V10.8312C56.0882 8.98297 55.5344 7.10216 55.4182 6.54498V6.45801H59.5028V16.7617C59.5028 18.5827 60.0566 20.4907 60.1728 21.018V21.1349H56.7878C56.5825 20.6647 56.3502 19.6074 56.2043 18.58C54.9778 20.3412 53.492 21.3686 51.4767 21.3686C48.9968 21.3686 46.6924 19.9009 46.6924 16.3785V16.3812Z" fill="#242424"/>
<path d="M66.0376 21.1346H61.283V21.0177C61.3991 20.4905 61.9529 18.5825 61.9529 16.7614V10.8309C61.9529 8.98271 61.3991 7.10189 61.283 6.54471V6.45774H65.3676V9.06968C66.4752 6.95512 68.5769 5.54723 71.3486 6.42784L70.8246 10.2139H70.6787C69.3658 8.97999 67.237 8.21896 65.3676 9.8606V16.7587C65.3676 18.5797 65.9214 20.4877 66.0376 21.015V21.1319V21.1346Z" fill="#242424"/>
<path d="M73.4179 23.0429L73.4774 23.013C75.2279 24.7443 77.562 25.6249 78.6129 23.013L79.1667 21.6051L74.2068 10.4208C73.4477 8.74651 72.4562 7.10488 71.9321 6.54498V6.45801H77.8267V6.54498C77.5944 7.07226 77.1838 8.71661 77.8862 10.274L80.8902 17.2319L83.6619 10.3338C84.3049 8.74923 83.8375 7.07498 83.6322 6.5477V6.46073H86.8416V6.5477C86.6092 6.90103 85.7043 8.3959 85.091 9.86359L79.5773 23.6299C78.205 27.0654 75.9006 27.6525 72.721 26.3887L73.4206 23.0429H73.4179Z" fill="#242424"/>
<path d="M87.3333 16.8785C87.3333 13.6496 90.7479 11.7416 94.657 12.2689C95.2999 12.3558 95.9105 12.4754 96.3778 12.6222V10.8012C96.3778 8.59965 95.5322 7.4255 94.2761 7.4255C92.4958 7.4255 89.0541 10.244 88.4706 11.0648H88.3544V7.4255C90.6291 6.66176 92.9064 6.28125 94.4814 6.28125C98.0122 6.28125 99.8195 8.12945 99.8195 10.9479V17.6993C99.8195 19.254 100.433 19.841 101.686 19.3437L101.716 19.4306C101.424 20.5178 100.489 21.2788 99.1765 21.2788C97.7177 21.2788 96.756 20.4852 96.4643 19.1072C95.6484 20.2515 94.1896 21.3685 92.0284 21.3685C88.9947 21.3685 87.3306 19.1371 87.3306 16.8785H87.3333ZM93.8114 19.4633C94.7731 19.4633 95.6484 18.993 96.3778 18.1423V13.5055C96.2319 13.5055 96.0861 13.4756 95.9402 13.4457C92.6714 12.9185 90.9505 14.503 90.9505 16.4681C90.9505 18.1994 92.177 19.4633 93.8087 19.4633H93.8114Z" fill="#242424"/>
</g>
<defs>
<linearGradient id="paint0_linear_9472_3610" x1="2.9284" y1="5.7428" x2="1.24276" y2="11.6081" gradientUnits="userSpaceOnUse">
<stop stop-color="#8900F2"/>
<stop offset="1" stop-color="white"/>
</linearGradient>
<linearGradient id="paint1_linear_9472_3610" x1="9.31478" y1="5.92762" x2="11.4772" y2="11.6321" gradientUnits="userSpaceOnUse">
<stop stop-color="#8900F2"/>
<stop offset="1" stop-color="white"/>
</linearGradient>
<linearGradient id="paint2_linear_9472_3610" x1="4.01169" y1="21.2485" x2="2.70239" y2="14.2201" gradientUnits="userSpaceOnUse">
<stop stop-color="white"/>
<stop offset="1" stop-color="#8900F2"/>
</linearGradient>
<linearGradient id="paint3_linear_9472_3610" x1="7.76144" y1="20.5962" x2="9.55083" y2="14.4813" gradientUnits="userSpaceOnUse">
<stop stop-color="white"/>
<stop offset="1" stop-color="#8900F2"/>
</linearGradient>
<linearGradient id="paint4_linear_9472_3610" x1="7.04808" y1="21.8655" x2="6.87308" y2="13.5704" gradientUnits="userSpaceOnUse">
<stop stop-color="white"/>
<stop offset="1" stop-color="#A100F2"/>
</linearGradient>
<linearGradient id="paint5_linear_9472_3610" x1="6.79685" y1="3.66629" x2="6.81872" y2="11.9805" gradientUnits="userSpaceOnUse">
<stop stop-color="#DEBFF2"/>
<stop offset="1" stop-color="#AC00DD"/>
</linearGradient>
<clipPath id="clip0_9472_3610">
<rect width="107" height="27" fill="white"/>
</clipPath>
</defs>
</svg>
