<svg width="24" height="24" viewBox="0 0 24 24" fill="none" xmlns="http://www.w3.org/2000/svg">
<path d="M19.4291 8.00211H18.2816V2.28711H17.1416V12.5696H6.85914V2.28711H5.71164V8.00211H4.57539V6.85461H3.43164V15.9971H4.57539V9.14211H5.71539V14.8571H6.86289V15.9971H8.00289V17.1446H10.2904V18.2846H6.85914V19.4246H10.2866V20.5721H5.71164V21.7121H18.2816V20.5721H13.7141V19.4246H17.1416V18.2846H13.7141V17.1446H16.0016V15.9971H17.1416V14.8571H18.2816V9.14211H19.4291V15.9971H20.5691V6.85461H19.4291V8.00211ZM12.5741 20.5721H11.4266V17.1446H12.5741V20.5721Z" fill="#1F1633"/>
<path d="M19.4288 15.9971H18.2812V17.1446H19.4288V15.9971Z" fill="#1F1633"/>
<path d="M5.71164 22.8604V21.7129H4.57164V22.8604H3.43164V24.0004H20.5691V22.8604H19.4291V21.7129H18.2816V22.8604H5.71164Z" fill="#1F1633"/>
<path d="M18.2826 17.1445H17.1426V18.2845H18.2826V17.1445Z" fill="#1F1633"/>
<path d="M17.142 1.13965H16.002V2.28715H17.142V1.13965Z" fill="#1F1633"/>
<path d="M16.001 8.00293H14.8535V9.14293H16.001V8.00293Z" fill="#1F1633"/>
<path d="M16.001 3.42773H14.8535V4.57523H16.001V3.42773Z" fill="#1F1633"/>
<path d="M14.8548 10.2822H13.7148V11.4297H14.8548V10.2822Z" fill="#1F1633"/>
<path d="M14.8548 5.71484H13.7148V6.85484H14.8548V5.71484Z" fill="#1F1633"/>
<path d="M12.5733 8.00293H11.4258V9.14293H12.5733V8.00293Z" fill="#1F1633"/>
<path d="M12.5733 3.42773H11.4258V4.57523H12.5733V3.42773Z" fill="#1F1633"/>
<path d="M10.2862 10.2822H9.13867V11.4297H10.2862V10.2822Z" fill="#1F1633"/>
<path d="M10.2862 5.71484H9.13867V6.85484H10.2862V5.71484Z" fill="#1F1633"/>
<path d="M16.0025 0H8V1.14H16.0025V0Z" fill="#1F1633"/>
<path d="M9.14 8.00293H8V9.14293H9.14V8.00293Z" fill="#1F1633"/>
<path d="M9.14 3.42773H8V4.57523H9.14V3.42773Z" fill="#1F1633"/>
<path d="M7.99937 1.13965H6.85938V2.28715H7.99937V1.13965Z" fill="#1F1633"/>
<path d="M6.85844 17.1445H5.71094V18.2845H6.85844V17.1445Z" fill="#1F1633"/>
<path d="M5.71227 15.9971H4.57227V17.1446H5.71227V15.9971Z" fill="#1F1633"/>
</svg>
