<svg width="32" height="32" viewBox="0 0 32 32" fill="none" xmlns="http://www.w3.org/2000/svg">
<rect x="0.5" y="0.5" width="31" height="31" rx="15.5" fill="#F4F1ED"/>
<rect x="0.5" y="0.5" width="31" height="31" rx="15.5" stroke="#C6C1BB"/>
<path d="M10 16C10 12.686 12.686 10 16 10C19.314 10 22 12.686 22 16" stroke="#4D4D4D" stroke-width="1.5" stroke-linecap="round" stroke-linejoin="round"/>
<path d="M22 16C22 19.314 19.314 22 16 22C12.686 22 10 19.314 10 16" stroke="#4D4D4D" stroke-width="1.5" stroke-linecap="round" stroke-linejoin="round"/>
<path d="M13.6668 14V14.6667" stroke="#4D4D4D" stroke-width="1.5" stroke-linecap="round" stroke-linejoin="round"/>
<path d="M18.3333 14V14.6667" stroke="#4D4D4D" stroke-width="1.5" stroke-linecap="round" stroke-linejoin="round"/>
<path d="M18.3332 17.792C18.3332 17.792 17.4578 18.6667 15.9998 18.6667C14.5412 18.6667 13.6665 17.792 13.6665 17.792" stroke="#4D4D4D" stroke-width="1.5" stroke-linecap="round" stroke-linejoin="round"/>
</svg>
