<svg width="24" height="24" viewBox="0 0 24 24" fill="none" xmlns="http://www.w3.org/2000/svg">
    <path d="M6 6H18" stroke="#1F1633" stroke-width="1.5" stroke-linecap="round" stroke-linejoin="round"/>
    <path d="M8 3H16" stroke="#1F1633" stroke-width="1.5" stroke-linecap="round" stroke-linejoin="round"/>
    <path fill-rule="evenodd" clip-rule="evenodd" d="M11.2588 13.071L13.9758 14.678C14.3198 14.881 14.3198 15.379 13.9758 15.582L11.2588 17.189C10.9088 17.396 10.4668 17.144 10.4668 16.737V13.524C10.4658 13.116 10.9088 12.864 11.2588 13.071V13.071Z" stroke="#1F1633" stroke-width="1.5" stroke-linecap="round" stroke-linejoin="round"/>
    <path fill-rule="evenodd" clip-rule="evenodd" d="M19 21H5C3.895 21 3 20.105 3 19V11C3 9.895 3.895 9 5 9H19C20.105 9 21 9.895 21 11V19C21 20.105 20.105 21 19 21Z" stroke="#1F1633" stroke-width="1.5" stroke-linecap="round" stroke-linejoin="round"/>
</svg>
